<svg xmlns="http://www.w3.org/2000/svg" xmlns:xlink="http://www.w3.org/1999/xlink" width="45.214" height="130" viewBox="0 0 45.214 130">
  <defs>
    <clipPath id="clip-path">
      <rect id="Rectangle_264" data-name="Rectangle 264" width="45.214" height="130" fill="#171817"/>
    </clipPath>
  </defs>
  <g id="Group_272" data-name="Group 272" transform="translate(0)">
    <g id="Group_244" data-name="Group 244" transform="translate(0)" clip-path="url(#clip-path)">
      <path id="Path_985" data-name="Path 985" d="M39.475,8.251l.291.493a40.142,40.142,0,0,1-6.685,6.524l-.111.311,3.722,11.448c-.5-.028-1.043.068-1.534-.01-1.674-.265-4.209-5.237-6.65-6.134-1.939-.712-2.283.577-3.559,1.709a22.088,22.088,0,0,1,7.513,4.029,17.485,17.485,0,0,1,6.082,14.746c-.073.821-.593,2.035-.585,2.69.009.708.7,1.842.381,2.781a.469.469,0,0,1-.581-.344c-.142-.448.2-1.318-.239-1.511-1.822,4.508-5.227,9.006-9.55,11.384-2.946,1.62-6.1,2.016-9.414,2.233l-.412,5.161.917,0c.718,1.08-1.152,1.244-1.295,1.479-.289.474.323,3.117-1.268,2.65l.178-2.654c-.791-.217-2.161-.775-2.183-1.742-.033-1.447,1.8.968,2.622.477l.621-5.364A16.517,16.517,0,0,1,8.558,55.35c-1.41,1.634-3.037,3.156-4.423,4.8C2.663,61.906,1.322,63.748.008,65.617v-4.23l6.764-7.431c-8.668-7.617-4.183-22.491,6.316-25.9,10.385-3.374,21.15,6.96,16.282,17.335a9.118,9.118,0,0,1-8.444,5.6c-2.029,0-4.549-1.972-6.172-1.866-.995.065-4.4,2.956-4.119,3.917,4.114,6.117,11.724,3.962,16.972.7,8.685-5.4,12.169-17.19,3.824-24.637a28.188,28.188,0,0,0-3.874-2.931c-2.092-1-4.934-.233-6.5-2.172-.324-1.085,1.282-2.4.072-3.359-3.489,4.046-9.937,7.656-15.405,6.341C1.195,25.887.708,18.767,1.3,15.015,1.936,11.007,4.8,5.21,7.136,1.872c1.285-1.837,3.5-3.194,2.956.28C9.569,5.5,8.028,7.343,8.515,11.392c.928,7.7,10.521,7.386,13.453,1.388-.194-1.253-4.217-3.549-1.7-4.779,1.5-.733,3.839.391,4.878-.481,1.19-1,.4-5.5,2.7-4.751,1.649.539,1.147,3.116,2.452,4.356a7.5,7.5,0,0,0,2.38,1.125ZM19.792,18.157c-1.721.318-3.247,1.1-5.041,1.245-7.3.574-8.1-4.5-8.356-10.532-3.826,2.639-4.052,7.922-2.909,12.1,1.921,7.021,11.145,3.146,14.785-.213.419-.386,2.043-2.058,1.522-2.6m4.1-6.631.351-1.837a2.428,2.428,0,0,0-2.089-.005c-.386.9.867.611.713,1.773Zm2.364,4.082c1.318,1.232,3.167,1.276,3.947-.547,1.336-3.122-2.652-7.775-4.116-3.709-.35.972-.174,1.912-.719,2.779a4,4,0,0,0,.888,1.477m9-5.092A2.777,2.777,0,0,0,31.4,10.4c.241.75-.069,1.679.7,2.14,1.524.918,2.084-1.671,3.15-2.028m-9.413,8.527c.078-.122.474-.165.542-.39l-.015-.359-1.622-1.376c-.5,1.334-1.154,2.555.1,3.71.556-.39.659-1.061.994-1.585m6.32,1.794c.584-.974-.111-4.14-1.51-3.692-1.539.492.231,3.66,1.51,3.692M27.008,44.776c2.15-2.88,1.86-7.319-.243-10.179-4.2-5.715-12.642-6.247-17.991-1.783-4.35,3.63-7.07,11.9-3,16.61,1.709,1.977,3.418,2.793,5.157.307-2.7,1.4-4.7-2.38-5.225-4.572-1.256-5.208,1.449-9.022,5.333-12.14,3.2-2.573,6.225-2.687,10.045-1.4,5.753,1.94,8.034,7.57,5.925,13.157m-9.069.823c2.033-.088,3.508.5,5.518-.147,3.634-1.177,3.883-4.417,2.141-7.417-3.149-5.428-11.36-4.062-13.232,1.678-.92,2.819-.355,5.038.522,7.745,1.229-1.913-.1-4.1.62-6.188.654-1.9,3.3-3.883,5.245-4.241,3.63-.669,9.05,1.565,7.119,6.1-.923,2.167-5,1.726-6.974,2.1-.253.048-.959.048-.959.378m1.387-6.964c-2.172.376-4.194,3.416-4.431,5.474-.291,2.516,1.352-.176,1.908-.573,1.964-1.4,5.343.069,6.9-.936,1.109-.717.76-1.291.093-2.141a4.478,4.478,0,0,0-4.467-1.825m6.165,7.917A8.83,8.83,0,0,1,20.723,48.5c-1.225.036-3.686-.74-3.611-2.281-1.744,2.022,1.6,2.929,3.194,2.905a9.46,9.46,0,0,0,5.571-2.489c.121-.143.215-.364-.007-.418-.447-.1-.258.245-.379.333" transform="translate(-0.004 0)" fill="#171817"/>
      <path id="Path_986" data-name="Path 986" d="M32.224,186.911a16.938,16.938,0,0,1,2.9,4.886c3.953.77,8.151-.725,11.295-3.1.417,2.7.224,3.024-1.984,4.2a14.72,14.72,0,0,1-9.256,1.657c-1.175,3.713-3.7,6.664-7.59,7.58l.18,6.37c2.466-1.162,2.672,2.138,2.48,3.826-.1.881-.7.981-.833.2-.083-.48.042-3.291-.519-3.4-.922-.058-1.793,3.688-2.572,2.887a58.466,58.466,0,0,0,.412-9.9,7.364,7.364,0,0,1-6.189-2.367c-1.176-1.219-2.137-3.117-3.516-4.115-2.4-1.738-6.491-1.959-9.256-1.15,1.043,1.573,3.814,4.076.506,4.9-.722-1.531-4.933-4.123-5.211-5.467-.194-.94,1.336-3.356,1.941-4.164a7.464,7.464,0,0,1,3.169-2.6c.5-.161,2.292-.5,2.283.411-.008.705-2.586,3-3.1,3.721a8,8,0,0,0,4.847.936,17.751,17.751,0,0,0,4.828-1.15c1.259-.832,1.328-3.458,2.575-4.645a11.735,11.735,0,0,1,6.4-2.271,10.694,10.694,0,0,1,6.208,2.765m-7.4-.432c-3.459.473-6.992,5.335-5.488,8.69,1.489,3.322,6.388,5.82,9.806,3.888,6.368-3.6,2.642-13.53-4.318-12.578" transform="translate(-1.379 -83.252)" fill="#171817"/>
      <path id="Path_987" data-name="Path 987" d="M60.939,160.675c-3.616.795-4.3-2.821-6.4-4.216-1.9-1.259-5.4-.4-7.4.4-2.964,1.179-5.495,3.993-8.878,3.31a17.753,17.753,0,0,1-3.3-1.474c-.178-1.089,2.388-1.28,3.163-1.577,4.665-1.789,6.839-5.384,10.548-7.391,4.875-2.638,7.028,3.647,10.35,5.749.621.393,1.348.526,1.921.966Z" transform="translate(-15.8 -67.406)" fill="#171817"/>
      <path id="Path_988" data-name="Path 988" d="M.008,138.447c5.053.558,9.622-6.91,14.126-7.022,4.412-.111,4.248,7.907,8.7,8.429,1.832.214,4.5-2.446,5.762-1.874.211.1.337-.013.27.368-.077.438-3.778,3.418-4.123,4.334-4.448,4.157-5.493-.186-8.143-3.206-7.027-8.007-9.021,3.458-16.593,1.86Z" transform="translate(-0.004 -59.417)" fill="#171817"/>
      <path id="Path_989" data-name="Path 989" d="M45.143,151.357a5.283,5.283,0,0,1-2.776-1.243c-1.84-1.435-5.174-6.878-7.221-7.023-2.908-.207-8.371,6.116-10.959,7.815-2.323,1.525-6.157,2.834-8.209.25-1.958-2.464-.964-7.717-5.357-7.234-1.079.118-3.943,2.516-4.938,3.314-1.675,1.344-3.255,4.012-5.644,2.648l-.027-2.034,1.443.329c3.708-1.9,9.634-9.529,13.888-4.848,1.6,1.757,1.864,7.268,4.736,6.986,3.538-.348,8.207-6.516,11.561-8.249,5.536-2.862,7.621,2.64,11.028,5.476.565.471,2.4,1.433,2.476,1.854.108.577-.073,1.35,0,1.96" transform="translate(-0.005 -63.866)" fill="#171817"/>
      <path id="Path_990" data-name="Path 990" d="M45.138,135.907c-3.811-.2-3.869-3.788-5.686-6.173-1.047-1.376-2.081-2.149-3.877-1.442-3.3,1.3-6.447,5.527-10.438,6.676-6.047,1.74-5.57-3.639-8.061-6.973-1.382-1.849-2.474-1.571-4.3-.657C8.634,129.414,4.9,133.609,0,133.845L0,132.1c6-.439,10.772-8.973,17.11-6.2,2.618,1.144,2.475,3.267,3.7,5.37,1.247,2.134,2.867,2.044,5.008,1.289,4.188-1.475,8.488-8.43,13.282-7.015,3.176.937,2.381,6.491,6.035,7.061Z" transform="translate(0 -56.67)" fill="#171817"/>
      <path id="Path_991" data-name="Path 991" d="M45.144,167.739V169.6a9.569,9.569,0,0,1-5.629-1.69c-1.026-.671-2.516-2.583-3.537-2.607-4.963-.115-8.964,7.154-14.441,6.781-3.853-.262-7.217-5.624-10.294-5.389-2.451.188-6.153,3.314-8.622,4.384-.4.174-2.377,1.021-2.611.79l.008-2.674c5.185-.818,9.459-6.372,15.089-4.085,3.445,1.4,3.141,4.486,8.084,4.073,5.5-.459,9.177-8.111,14.738-5.876,2.478,1,3.81,5.139,7.215,4.434" transform="translate(-0.005 -73.646)" fill="#171817"/>
      <path id="Path_992" data-name="Path 992" d="M42.617,86.246c-3.3,5.56-11.631,10.71-17.993,7.387-1.781-.93-2.736-1.917-1.08-3.685,1.867-1.994,3.465-.161,5.06.525a9.627,9.627,0,0,0,8.52-.34c1.835-1.067,3.161-3.545,5.493-3.887" transform="translate(-10.257 -38.992)" fill="#171817"/>
      <path id="Path_993" data-name="Path 993" d="M21.051,116.079v.4c-1.426.847-1.922.312-1.648-1.233-1.051.456-1.949,1.564-3.206.836-.729-1.6.857-4.7,2.438-5.218a3.664,3.664,0,0,1,2.772.209c1.261.768-.055,1.166-.4,1.751s-1.121,3.233.046,3.251m-1.029-4.337c-2.107-.178-2.667,1.8-2.883,3.506.329.376,3.211-2.737,2.883-3.506" transform="translate(-7.24 -50.045)" fill="#171817"/>
      <path id="Path_994" data-name="Path 994" d="M63.613,106.56c-.27.024-.4.077-.624-.129-.4-.368-1.772-3.156-2.149-3.164-.946,1.123.64,2.939-.308,4.023l-1.14-1.758-.508-.41c-.329,1.594,1.634,3.064,1.821,4.277.191,1.241-1.01.493-1.5-.164-.9-1.212-2.91-6.41.295-5.351.248-3.074,1.726-1.878,2.976-.194.322.434,1.724,2.483,1.137,2.87" transform="translate(-26.109 -46.107)" fill="#171817"/>
      <path id="Path_995" data-name="Path 995" d="M29.671,223.214c.081.118.014.375.058.533l1.5.056c.989.325-.738,3.44-1.157,3.837-.2.191-1.112.536-.982-.05l1.446-2.783c-1.216.1-1.868,1.65-3.09,1.028l1.236-1.646c-1.342.139-1.5,1.853-2.364,2.481-.283.2-.327.357-.628,0-.735-1.105,3.079-4.758,3.98-3.452" transform="translate(-11.573 -100.79)" fill="#171817"/>
      <path id="Path_996" data-name="Path 996" d="M73.69,222.325H74.3c.186.887,1.117,5.222,2.361,4.947,1.328-1.11-.3-5.334.73-6.087.584-.425.791.911.828,1.244.133,1.179.007,5-1.239,5.567-2.2,1-3.653-4.122-3.294-5.672" transform="translate(-33.291 -99.962)" fill="#171817"/>
      <path id="Path_997" data-name="Path 997" d="M10.249,113.37c-.544-1.9,1.81-3.007,2.266-4.743-1.1-.807-4.023,3.1-5.357,2.372.774-1.571,2.553-2.05,3.781-3.024.461-.365.541-1.094,1.211-.965.837.16,1.5.746,1.313,1.625-.051.244-2.256,4-2.506,4.311-.193.242-.338.5-.708.424" transform="translate(-3.236 -48.373)" fill="#171817"/>
      <path id="Path_998" data-name="Path 998" d="M59.628,231.061c-2.081-.324-1.266-3.65-2.575-4.948-.659,0-.719,4.514-.713,5.221l-.623.347c-.827-2.166.487-4.313-.416-6.4.8.068,1.687-.8,2.278-.113Z" transform="translate(-25.002 -101.681)" fill="#171817"/>
      <path id="Path_999" data-name="Path 999" d="M70.2,214.649c.507,3.128-.19,5.962.261,9.13.119.84.656,1.546.357,2.426-.514.5-1.129-1.572-1.182-1.805a39.862,39.862,0,0,1-.415-8.771c.1-.545.277-1.14.979-.98" transform="translate(-31.248 -97.032)" fill="#171817"/>
      <path id="Path_1000" data-name="Path 1000" d="M68.589,96.4c4.8,5.089-1.444,5.534-4.251,2.094.228-.305.3-.325.673-.271,1.079.158,2.892,2.112,4.278,1.517,1.072-.708-2.2-2.963-2.6-3.4a11.078,11.078,0,0,1-.706-1.147c.031-1.139,2.43,1.027,2.6,1.209" transform="translate(-29.087 -42.889)" fill="#171817"/>
      <path id="Path_1001" data-name="Path 1001" d="M36.889,113.6c.069.848,1,4.411,2.172,4.073,1.066-.307.18-4.773.752-5.145.953-.62,1.033,1.822,1,2.343-.094,1.63-.645,4.427-2.81,3.485-1.233-.537-2.559-4.975-1.6-5Z" transform="translate(-16.311 -50.828)" fill="#171817"/>
      <path id="Path_1002" data-name="Path 1002" d="M75.986,76.24a1.99,1.99,0,0,0,1.235-2.064l.614,0c.38,2.713-1.7,4.139-4.179,3.051-3.8-1.664,1.684-5.409,2.33-.989m-2.329-.99c-.246.076-.387.3-.556.474,2.542,2.493,2.731-1.147.556-.474" transform="translate(-32.7 -33.528)" fill="#171817"/>
      <path id="Path_1003" data-name="Path 1003" d="M39.05,230.064c-.707-.971.727-3.29.363-4.487-1.04-.207-2.346,4.6-3.3,3.712-.081-1.519,1.457-2.716,1.9-3.766.155-.365.093-1.268.455-1.339,3.358-.031.877,3.753,1.323,5.8-.069.394-.591.3-.75.078" transform="translate(-16.327 -101.355)" fill="#171817"/>
      <path id="Path_1004" data-name="Path 1004" d="M74.532,83.69c.4.42.23,1.455.261,2.01.964.155,1.364-.85,1.957-1.238.265-.174.449-.22.516.108-.491,2.448-3.468,2.837-5.132,1.213-1.944-1.9,1.216-3.349,2.4-2.093m-.567,2.01a2.715,2.715,0,0,0,.18-.885c-.147-.645-1.42-.817-1.822-.249.311.269,1.186,1.454,1.641,1.134" transform="translate(-32.333 -37.624)" fill="#171817"/>
      <path id="Path_1005" data-name="Path 1005" d="M50.057,111.163c-.464-.019-.867.444-1.238.536-.473.117-1.151-.263-1.457.224-.649,1.029.733,2.877.651,4.092-.032.477-.252.253-.535.5-1.285-1.492-.955-3.658-1.954-5.236.062-.271,2.619-.941,3-.949a1.559,1.559,0,0,1,1.535.831" transform="translate(-20.582 -49.881)" fill="#171817"/>
      <path id="Path_1006" data-name="Path 1006" d="M70.31,91.762c-.651-.2.038-2.906.228-2.9l.7.219.024,1.827c.745.214,1.543-.212,2.246-.1,1.282.2,2.726,1.8,1.442,2.914l-2.063-.108c-.021-.726.882-.843,1.443-.825.2-.407-.424-1.031-.723-1.031a24.544,24.544,0,0,1-3.3,0" transform="translate(-31.664 -40.177)" fill="#171817"/>
      <path id="Path_1007" data-name="Path 1007" d="M65.695,232.5a1.461,1.461,0,0,1,.257-2.006c1.057.548.848,3.155-.257,2.006" transform="translate(-29.573 -104.209)" fill="#171817"/>
      <path id="Path_1008" data-name="Path 1008" d="M36.366,74.561c-.275.431-1.492.027-1.923.018-1.923-.042-3.914-.259-5.467,1.042.147-2.607,2.857-4.031,5.236-3.694.986.14,2.764,1.681,2.155,2.635" transform="translate(-13.1 -32.496)" fill="#171817"/>
    </g>
  </g>
</svg>
