<svg xmlns="http://www.w3.org/2000/svg" width="102.792" height="104.232" viewBox="0 0 102.792 104.232">
  <g id="Group_132" data-name="Group 132" transform="translate(-1612.573 -68.059)">
    <path id="Path_829" data-name="Path 829" d="M14.319,71.191a.659.659,0,0,0,.354-.623V59.886a.659.659,0,0,0-.354-.623,2.5,2.5,0,0,0-1.143-.195h-.889V71.385h.889a2.5,2.5,0,0,0,1.143-.194" transform="translate(1614.022 76.736)" fill="#586746"/>
    <path id="Path_830" data-name="Path 830" d="M36.8,76.276h2.728L38.13,65.384Z" transform="translate(1616.911 77.664)" fill="#586746"/>
    <path id="Path_831" data-name="Path 831" d="M32.137,0A51.227,51.227,0,0,0,20.872,5.363l5.1,28.655Z" transform="translate(1615.034 68.059)" fill="#586746"/>
    <path id="Path_832" data-name="Path 832" d="M67.161.1V62.9H49.474l-.115-57.75L36.833,62.9H20.187L10.116,17.347c-.863,1.1-1.69,2.235-2.468,3.406l-.1,42.15H0A53.807,53.807,0,0,0,8.725,82.381V65.473h5.9c.358,0,.688.018.994.018,5.2,0,5.512.359,5.512,3.056V79.23c0,2.506-.833,3.068-5.859,3.068-.21,0-.426.007-.647.007h-.888v6.1a51.266,51.266,0,0,0,36.979,15.816c28.76,0,52.076-23.921,52.076-53.427C102.792,27.182,87.86,7.164,67.161.1M32.912,92.715h-8V65.473h5.012V90.458h2.992Zm11.556,0-.4-4.514H40.932l-.4,4.514H35.82l3.8-27.242h6.142l3.962,27.242Zm22.692,0h-5.7l-3.678-17.6-.082,17.6H52.894V65.473h5.7l3.677,17.6.08-17.6h4.81Z" transform="translate(1612.573 68.074)" fill="#586746"/>
  </g>
</svg>
