<svg xmlns="http://www.w3.org/2000/svg" width="53.827" height="9.617" viewBox="0 0 53.827 9.617">
  <g id="Group_202" data-name="Group 202" transform="translate(-1759.831 -2988.863)">
    <path id="Path_797" data-name="Path 797" d="M541.047,70.263l-3.029,2.283,3.029,2.177V77.3h-1.913l-3.506-2.788V77.3h-3.037V67.753h3.043v2.816l3.55-2.816h1.884Z" transform="translate(1263.215 2921.155)" fill="#586746"/>
    <path id="Path_798" data-name="Path 798" d="M547.2,77.341h-8.45V67.724h8.45ZM544.134,70.3h-2.339v4.445h2.339Z" transform="translate(1266.459 2921.14)" fill="#586746"/>
    <path id="Path_799" data-name="Path 799" d="M520.454,67.724v9.617h-3.045V70.3h-1.165V77.32h-3.016V70.3h-1.167V77.32h-3.031v-9.6Z" transform="translate(1250.8 2921.14)" fill="#586746"/>
    <path id="Path_800" data-name="Path 800" d="M525.711,77.341h-8.45V67.724h8.45ZM522.668,70.3h-2.339v4.445h2.339Z" transform="translate(1255.137 2921.14)" fill="#586746"/>
    <path id="Path_801" data-name="Path 801" d="M527.753,67.724v6.5h3.058V70.3h2.354v4.466H526.6V67.738H523.55v9.6h12.66V67.724Z" transform="translate(1258.45 2921.14)" fill="#586746"/>
  </g>
</svg>
