<svg xmlns="http://www.w3.org/2000/svg" width="18.429" height="18.429" viewBox="0 0 18.429 18.429">
  <path id="Icon_awesome-linkedin-in" data-name="Icon awesome-linkedin-in" d="M4.125,18.429H.3V6.126H4.125ZM2.213,4.447A2.223,2.223,0,1,1,4.425,2.213,2.231,2.231,0,0,1,2.213,4.447ZM18.425,18.429H14.613V12.44c0-1.427-.029-3.258-1.986-3.258-1.986,0-2.291,1.551-2.291,3.155v6.092H6.518V6.126h3.664V7.8h.053a4.015,4.015,0,0,1,3.615-1.987c3.867,0,4.578,2.546,4.578,5.854v6.759Z" transform="translate(0 -0.001)" fill="#fff"/>
</svg>
