<svg xmlns="http://www.w3.org/2000/svg" width="47.5" height="63.101" viewBox="0 0 47.5 63.101">
  <g id="Group_201" data-name="Group 201" transform="translate(-1574.816 -2958.721)">
    <path id="Path_788" data-name="Path 788" d="M354.487,55.387V53.968h-3.408V52.119h-2.418V49.666h-2.339V47.213h-1.467V40.585h-1.919V38.506h-1.688v-.925h-2.418v3.056h-1.982v1.529h-1.586v3.022h-1.624v2.595h-1.427V50.59h-1.824v6.576h2.853v3.092h1.625v2.488h1.427v2.061h-1.388v1.431h-1.524v3.935h1.842v.89h3.449V72.84H344.5V71.347h1.661V69.962h2.775V71.1h1.745v1h2.5V64.523h1.506V61.715H356V59.522h1.069V55.387Z" transform="translate(1254.858 2921.14)" fill="#586746"/>
    <path id="Path_789" data-name="Path 789" d="M367.519,75.093c.088-.141.043-.313-.134-.512a9.926,9.926,0,0,0-2.141.164,2.1,2.1,0,0,1-.759.061c-.018,0-.036,0-.054,0a2.519,2.519,0,0,1-1.1-.391c-.561-.3-1.046-.561-1.383-.018a3.126,3.126,0,0,1-.435,3.421,1.676,1.676,0,0,1-1.832.373,2.613,2.613,0,0,1-1.239-2.613v-.015l.011-.011c.47-.476,1.025-1.02,1.612-1.594,2.726-2.667,6.458-6.319,7.16-8.75-.1-.563-.336-.89-.709-.976-1.634-.373-5.507,3.948-6.011,4.659a22.749,22.749,0,0,0-2.9,5.273l-.01.015c-1.591,1.691-4.9,3.21-7.283,2.776a3.2,3.2,0,0,1-2.527-2.013l-.018-.044.048-.008c2.835-.419,4.312-1.542,4.516-2.47a.712.712,0,0,0-.306-.8c-.606-.4-2.1-.291-4.323,1.318a2.558,2.558,0,0,1-2.945.853c-.216-.038-.462-.08-.732-.121l-.008,0c-.357-.152-.6-.285-.8-.391-.457-.249-.583-.318-1.059-.034-.21,1.293-1.187,3.665-2.123,4.32a.82.82,0,0,1-.635.175.708.708,0,0,1-.56-.231,1.826,1.826,0,0,1-.3-1.4c.229-1.27.236-1.964.02-2.064-.273-.126-.966.7-1.634,1.5-.971,1.167-2.069,2.49-2.706,2.051-.476-.146-.738-.579-.758-1.257-.041-1.413.927-3.372,1.467-3.569,1.072-.133,3.392-1.138,3.464-1.951.029-.308-.275-.565-.9-.76-.681-.213-1.915.75-2.817,1.45-.324.252-.6.47-.815.6l-.008,0a8.167,8.167,0,0,1-2.12.334,2.252,2.252,0,0,0-1.508.45.338.338,0,0,0,.106.282c.313.291,1.264.152,1.959.049a3.447,3.447,0,0,1,.9-.074l.051.011-.026.046c-1.357,2.329-.908,4.155.082,4.865.843.6,2.437.611,4.156-1.36l.067-.079,0,.1a1.711,1.711,0,0,0,.94,1.607,2.263,2.263,0,0,0,2.329-.214c.954-.524,1.578-2.153,1.951-3.127.1-.272.193-.506.265-.655l.013-.026.029.007a8.67,8.67,0,0,0,3.6.241l.031,0,.01.031a3.9,3.9,0,0,0,2.532,2.874c2.464.876,6.011-.268,8.1-1.791l.059-.043,0,.072a3.322,3.322,0,0,0,1.629,3.074,2.964,2.964,0,0,0,2.976-.175,3.266,3.266,0,0,0,1.342-3.122l0-.056.052.016c.679.2,3.742.275,4.146-.367M358.8,73.826a25.271,25.271,0,0,1,1.835-3.443c1.008-1.883,4.312-5.035,5.612-5.353l.07-.018-.026.069c-.925,2.323-4.52,6.261-7.432,8.789l-.128.111Zm-10.617,0a4.36,4.36,0,0,1,2.943-1.622l.01,0,.01,0c.093.038.142.092.149.16.011.149-.2.354-.619.606a7.361,7.361,0,0,1-2.37.93.2.2,0,0,1-.111-.023l-.034-.021Zm-12.21-2.362a5.959,5.959,0,0,1,1.146-.8l.3-.165-.26.228a5.6,5.6,0,0,1-1.146.8l-.246.123Z" transform="translate(1254.754 2938.101)" fill="#586746"/>
    <path id="Path_790" data-name="Path 790" d="M339.948,65.094c-.617-1.933-2.5,3.673-3.03,3.665-2.955,3.105-3.091-1.324-1.742-4.119,2.47-3.829-2.655-.268-2.991-.44-.781.3-2.076,2.189-2.619,2.77-.815-.74-1.023-3.77-2.68-3.587-1.963.246-3.272,3.254-2.758,5.076,1.47,2.621,3.574.584,4.06-2a4.253,4.253,0,0,1,.707,1.457,40.6,40.6,0,0,0-2.94,7.556c-1.256,3.9.08,11.261,4.457,8.506,2.965-3.609,2.071-11.154.124-14.9-.486-1.139-.737-.93-.136-1.81a5.153,5.153,0,0,1,3.86-2.737c-3.1,9.833,4.076,6.523,5.687.561m-12.824,1.861c-.349,2.121-2.18,2.5-2.228.457-.085-1.017,1.136-3.537,2.105-3.094.435-.193.381,2.5.123,2.637m4.4,10.107c-.167,11.252-7.327,6.41-4.531-2.012a33.5,33.5,0,0,1,2.4-6.14,17.694,17.694,0,0,1,2.126,8.152" transform="translate(1250.8 2937.24)" fill="#586746"/>
    <path id="Path_791" data-name="Path 791" d="M336.523,62.241c2.735.465-.5,3.385-2.436,3.865a1.881,1.881,0,0,0,2.372,1.786c3.135.286,5.354-4.958,5.762-3.231-1.043,2.87-7.019,6.4-8.838,2.4-1.069-1.588,1.673-4.811,3.14-4.822m-2.212,2.817q0-.015-.083-.01c.385.17,2.5-1.449,2.385-1.881a3.192,3.192,0,0,0-2.3,1.891" transform="translate(1256.612 2936.846)" fill="#586746"/>
    <path id="Path_792" data-name="Path 792" d="M347.456,63.1c1.439.642-2.3,6.328-3.772,5.8-2.087.586-1.856-3.921-2.763-4.107-.814-.692-2.9,6.486-3.487,4.2.467-1.539.545-5.95,1.66-4.881-.02.717-.372,1.557-.435,2.68-.006-.093-.059-.116-.121-.1.512-1.254,2.886-4.832,3.6-1.5.337,1.57.591,2.37.76,2.411,2.164,1.855,3.642-3.313,4.561-4.5" transform="translate(1259.346 2937.393)" fill="#586746"/>
    <path id="Path_793" data-name="Path 793" d="M346.986,66.111l.016.044c1.082-1.2,1.157-4.322-.8-4.158-1.838.033-3.629,4.361-3.369,5.844.586,3.84,3.65-.658,4.153-1.73m-2.735,2.177c-2.21-.083,1.846-7.643,2.639-4.613.241,1.143-2.338,4.773-2.639,4.613" transform="translate(1262.769 2936.687)" fill="#586746"/>
    <path id="Path_794" data-name="Path 794" d="M346.515,64.028c-.02,4.011-.452,8.427-2.922,11.118-.152.165.013.175.111.342,2.338,1.686,5.322-14.7,2.811-11.46" transform="translate(1263.23 2937.713)" fill="#586746"/>
    <path id="Path_795" data-name="Path 795" d="M346.331,66.705c.008.033.016.065.026.093a3.078,3.078,0,0,0,.591.81,3.973,3.973,0,0,0,3.519.635,10.784,10.784,0,0,0,3.526-2.624q.469-.781.776-1.4a.489.489,0,0,0-.013-.447.426.426,0,0,0-.768.011,6.852,6.852,0,0,1-3.554,3.492l-.234.095a2.885,2.885,0,0,1-1.509.214,2.217,2.217,0,0,1-1.342-.981l-.01-.028a.085.085,0,0,1,.016-.079,21.217,21.217,0,0,0,1.752-1.544,3.493,3.493,0,0,0,.836-2.447q-.236-.636-1.244-.39l-.118.047a2.113,2.113,0,0,0-.792.614,5,5,0,0,0-1.321,2c-.061.306-.231.519-.285.845a3.909,3.909,0,0,0,.147,1.074m1.02-1.761a3.837,3.837,0,0,1,1.491-1.966l.059-.025c.048-.02.077-.013.09.02q.091.25-.607,1.444a5.065,5.065,0,0,1-1.152,1.041,1.67,1.67,0,0,1,.12-.514" transform="translate(1264.913 2936.727)" fill="#586746"/>
    <path id="Path_796" data-name="Path 796" d="M334.213,62.789c.689-1.069,3.28-1.427,2.929-1.822-1.257-.889-6.677,2.965-2.929,1.822" transform="translate(1256.466 2935.95)" fill="#586746"/>
  </g>
</svg>
