<svg xmlns="http://www.w3.org/2000/svg" width="17.871" height="16.634" viewBox="0 0 17.871 16.634">
  <path id="Union_1" data-name="Union 1" d="M-8083.694-4014.631l-7.043-9.262a1.291,1.291,0,0,1,.234-1.8,1.244,1.244,0,0,1,.772-.266,1.261,1.261,0,0,1,1.008.5l4.777,6.281v-11.539a1.277,1.277,0,0,1,1.27-1.283,1.277,1.277,0,0,1,1.271,1.283v11.52l4.76-6.236a1.262,1.262,0,0,1,1.782-.233,1.294,1.294,0,0,1,.23,1.8l-7.048,9.235a1.264,1.264,0,0,1-1.006.5A1.267,1.267,0,0,1-8083.694-4014.631Z" transform="translate(4031.999 -8074.366) rotate(-90)" fill="#586746"/>
</svg>
