<svg xmlns="http://www.w3.org/2000/svg" xmlns:xlink="http://www.w3.org/1999/xlink" width="273.619" height="130" viewBox="0 0 273.619 130">
  <defs>
    <clipPath id="clip-path">
      <rect id="Rectangle_263" data-name="Rectangle 263" width="273.619" height="130" fill="#171817"/>
    </clipPath>
  </defs>
  <g id="Group_271" data-name="Group 271" transform="translate(0)">
    <g id="Group_242" data-name="Group 242" transform="translate(0)" clip-path="url(#clip-path)">
      <path id="Path_946" data-name="Path 946" d="M36.623,85.762a13.854,13.854,0,0,1,1.512.067c.571.177,1.133,1.339,1.651.985a1.836,1.836,0,0,1,.21-.658c5.091-6.593,9.878-13.1,15.485-19.334,1.649-1.832,3.836-3.385,5.409-5.235.751-.883,1.353-2.444,2.092-3.084.872-.757,5.2-1.962,5.623-.635.678,2.112-3.249,4.121-4.513,5.258-4.775,4.293-8.143,9.187-12.686,13.681L41.246,89.865c-.077.864,2,2.008,2.572,2.593a24.006,24.006,0,0,1,3.2,4.535c.629.969,1.808,1.436,2.415,2.156.85,1.009,1.739,3.176,2.661,4.275.721.86,2.6,2.091,3.187,2.886.513.694.659,1.782,1.241,2.625.6.868,1.851,1.456,2.161,1.88s.187,1.208.628,1.659c1.335,1.364.975.608,2.275,2.646.763,1.2,2.308,3.912,2.827,1.045.327-1.8-.03-3.459-.015-5.292.063-7.565.656-15.33-.314-22.851-.156-1.212-.487-4.164.431-4.972A27.956,27.956,0,0,1,68.877,81.6a.655.655,0,0,1,.759.529,33.321,33.321,0,0,1,.067,5.586c-.081,4.361-.4,8.525-.391,12.951.011,6.25-.533,13.211-.31,19.351a23.249,23.249,0,0,0-.032,3.123c.093.392,5.862,1.849,1.785,5.689-.711.669-1.983.567-2.133,1.764-.09.716.339,1.4.364,2.092.172,4.693.361,9.377.7,14.056.24,3.268,1.264,7.22.7,10.538-.16.938-3.392,2.535-4.1,2.6-1.9.183-.762-5.425-.8-6.476-.24-6.507-1.139-13.223-1.422-19.671-.1-2.212.364-5.588-.167-7.564a38.491,38.491,0,0,0-2.991-4.392c-3.451-3.857-6.781-7.68-10.006-11.791-4.042-5.152-7.4-11-12.537-15.22-2.8-2.294-1.632,4.718-1.719,6.3-.232,4.207-1.121,8.388-.737,12.652l.641,13.272c-.226,1.234-3.767,3.1-4.844,2.539-1.9-.993-.546-2.784-.367-3.894.778-4.832-.324-9.759-.34-14.392,0-1.147.57-2.966.707-4.218.181-1.655.243-3.428.351-5.094-.745-.841-2.693,3.23-2.909,3.414-1.012.865-5.419,1.37-6.067.1-.933-1.825,1.949-2.792,3.007-3.685A67.04,67.04,0,0,0,31,96.484c1.591-2.255.608-3.414.676-5.633.154-5.032,1.032-10.045,1.1-15.12.092-7.154,1.466-15.617.691-22.833-.12-1.118-.965-2.6-.912-3.521a7.179,7.179,0,0,1,2.562-2.906c.855-.252,4.08-.839,3.988.466ZM34.871,71c.136.171.93-.615.7-1.054-.136-.171-.93.615-.7,1.054m.345,1.056h-.345v.7h.345Zm0,3.163h-.345v1.051h.345Zm-.352,6.326h-.345V82.6h.345Zm-.525,3.864v.352q.343-.176,0-.352M67.224,99.467l-.173-1.051c-.372.321-.641.532-.527,1.051Zm0,3.166h-.345v.7h.345Zm0,1.406h-.345v1.754h.345Zm0,4.569h-.345v1.051h.345Zm0,1.406h-.345v.7h.345Zm-.173,1.4v.351q.342-.176,0-.351m.174,7.733h-.7V120.9h.345Zm-1.4,20.028c.141.182,1.281.422,1.4-.174a1.221,1.221,0,0,0-1.4-.526c.023.217-.056.626,0,.7" transform="translate(-14.833 -29.882)" fill="#171817"/>
      <path id="Path_947" data-name="Path 947" d="M6.085,103.891c1.094-.438,1.432,1.435,1.437,2.214.018,2.478-.565,5.584-.655,8.068-.247,6.859-.617,13.551-.337,20.4.054,1.3.7,3.7-.315,4.958a12.782,12.782,0,0,1-3.007,1.215c-1.159-.092-2.225-2.321-2.152-3.369.031-.436.487-.882.535-1.41.526-5.867,1.407-20.222.28-25.548-.219-1.035-1.147-2-.977-3.238.248-1.806,3.9-2.553,5.191-3.286" transform="translate(-0.566 -67.271)" fill="#171817"/>
      <path id="Path_948" data-name="Path 948" d="M280.67,156.014a4.309,4.309,0,0,1,1.054,0c.115.205-.292,1.427.525,1.053,1.042-.478,1.014-1.664,3.139-1.4,1.682.213,2.334,1.744,2.492,1.744.26,0,1.265-2.107,3.845-1.738.785.112,2.31,1.2,2.31,1.919V165.5H292.98v-7.556c0-.866-2.107-1.382-2.98-1.226a3.691,3.691,0,0,0-1.944,1.928V165.5H287v-6.853a6.672,6.672,0,0,0-.846-1.613c-1.228-1.029-4.078.384-4.078,1.613V165.5H280.67Z" transform="translate(-181.852 -100.836)" fill="#171817"/>
      <path id="Path_949" data-name="Path 949" d="M527.624,229.9c-.495,2.992-3.822,4.162-6.427,2.908-.55-.265-2.221-1.816-1.661-2.379.661-.665,1.648,1.441,2.71,1.68,3.463.78,4.455-1.458,4.32-4.493-1.609,1.473-3.143,2.052-5.281,1.236-3.447-1.315-3.14-10.12,2.622-9.308,1.274.18,1.534,1.254,2.661,1.4-.5-1.344,1.057-1.161,1.057-1.056,0,2.791.414,7.511,0,10.016m-5.379-9.237c-3.133.716-2.849,8.389,1.663,7.652,3.776-.617,3.691-8.876-1.663-7.652" transform="translate(-336.306 -142.21)" fill="#171817"/>
      <path id="Path_950" data-name="Path 950" d="M236.715,156.041l1.054,0,.176,1.407c1.978-2.528,4.088-2.185,6.15,0,.17-1.307,2.137-1.9,3.319-1.751.849.108,2.666,1.554,2.666,2.278v7.556h-1.055v-6.5a13,13,0,0,0-.676-1.785c-.917-1.218-4.248-.262-4.248,1.082v7.2h-1.407v-7.556c0-1.379-3.061-1.676-4.036-.518a13.8,13.8,0,0,0-.888,1.924v6.15h-1.055Z" transform="translate(-153.373 -100.864)" fill="#171817"/>
      <path id="Path_951" data-name="Path 951" d="M502.494,145.738v7.029c.6.143.7-.231,1.057-.525,1.913-1.592,4.436-4.7,6.355-5.976.612-.407,1.1-.294,1.729-.527.148.654-.357.835-.7,1.23-.837.968-4.589,3.535-4.588,4.568,0,.728,6.117,7.148,5.641,7.554a2.168,2.168,0,0,1-1.6-.327c-.892-.578-3.192-4.188-4.192-5.3-.289-.321-.926-1.123-1.366-1.027a17.192,17.192,0,0,0-2.152,2.09c-.53,1.164.008,3.256-.182,4.566l-1.054,0V145.738Z" transform="translate(-324.893 -94.427)" fill="#171817"/>
      <path id="Path_952" data-name="Path 952" d="M687.263,156.549c.332.224,2,6.715,2.144,7.7.891.12.551-.04.733-.5.578-1.455,1.336-6.135,1.895-6.894.288-.392.638-.35,1.066-.355.758-.008.4.074.564.5.333.857,1.781,7.244,2.247,7.245.9-.887,2.01-7.443,2.321-7.7.2-.165.995.027,1.371-.034-.668,1.308-2.47,8.854-3.147,9.328a2.293,2.293,0,0,1-1.409.148c-.272-.224-1.409-5.735-1.8-6.819-.135-.379-.141-.846-.678-.9-.649,1.628-1.224,6.352-2.079,7.521-.295.4-.954.238-1.4.166-.364-2.813-2.512-6.29-2.852-8.927-.1-.752.71-.7,1.02-.49" transform="translate(-444.626 -101.344)" fill="#171817"/>
      <path id="Path_953" data-name="Path 953" d="M419.055,222.142c-.086-.067-.268-1.211-.82-.569-.233.271.567,1.71-.7,1.4V209.627l1,.583.058,4.162,2.665-1.22c8.476-.49,4.889,14.542-2.194,8.989m1.538-7.872c-2.638.6-2.909,6.574-.159,7.74,5.556,2.355,6.689-9.228.159-7.74" transform="translate(-270.527 -135.822)" fill="#171817"/>
      <path id="Path_954" data-name="Path 954" d="M482.853,224.73h-6.858c-.984,0,.167,3.243,1.559,3.711a3.319,3.319,0,0,0,3.711-.908c.547-.694.316-1.994,1.591-1.218-1.348,5.107-8.229,4.081-8.467-1.4-.318-7.324,9.139-7.369,8.464-.183m-1.059-1.058a3,3,0,1,0-5.976,0Z" transform="translate(-307.362 -142.141)" fill="#171817"/>
      <path id="Path_955" data-name="Path 955" d="M396.37,224.786h-7.386a3.253,3.253,0,0,0,4.482,3.6,2.815,2.815,0,0,0,1.524-2.17,3.713,3.713,0,0,1,1.027-.02c.558.549-1.161,2.6-1.785,2.958a4.236,4.236,0,0,1-5.911-1.769c-3.689-7.862,7.732-11.781,8.05-2.6m-7.383-.7c1.547-1.039,6.476,1.217,5.915-1.508-.69-3.354-6.564-2.4-5.915,1.508" transform="translate(-251.126 -142.196)" fill="#171817"/>
      <path id="Path_956" data-name="Path 956" d="M328.53,224.751h-7.386c-.546,3.085,3.417,5.374,5.446,2.8.547-.694.314-1.991,1.59-1.219.4,3.135-6.136,5.073-7.816.778-3.169-8.1,7.943-11.214,8.166-2.361m-7.384-.7a31.558,31.558,0,0,0,3.332-.376c1.4-.078,3.009,1,2.583-1.132-.668-3.342-6.568-2.412-5.915,1.508" transform="translate(-207.203 -142.162)" fill="#171817"/>
      <path id="Path_957" data-name="Path 957" d="M332.4,165.548c-1.239.149-1.831-.071-1.76-1.4-1.728,2.507-6.816,2.483-7.031-.906-.118-1.852,1.235-2.508,2.734-2.867,1.818-.435,4.82.166,3.894-2.675-.382-1.172-3.47-1.353-4.372-.259-.766.929-.037,1.787-1.9,1.432.06-3.676,7.017-4.382,7.4-.9.191,1.727-.3,3.98-.013,5.636.159.921,1.123,1.023,1.048,1.936m-2.11-4.919c-1.719.017-7.164.951-5.09,3.5,1.9,2.341,6.224-.328,5.09-3.5" transform="translate(-209.67 -100.884)" fill="#171817"/>
      <path id="Path_958" data-name="Path 958" d="M734.869,161h-7.386a3.242,3.242,0,0,0,4.327,3.794c1.083-.323,1.45-2.1,2.528-2.392.255,4.4-6.192,4.715-7.736,1.059-3.233-7.658,7.7-11.554,8.267-2.461m-1.407-.7c.391-4.892-6.028-4.534-5.979,0Z" transform="translate(-470.394 -100.898)" fill="#171817"/>
      <path id="Path_959" data-name="Path 959" d="M375.751,160.954h-7.386c-.163,2.768,2.133,4.88,4.84,3.606,1-.47,1.064-1.949,1.675-2.192,1.453-.578.668,1.112.113,1.871-1.908,2.607-6.646,2.1-7.519-1.165-2.2-8.235,8-10.534,8.276-2.12m-7.386-.7h5.8c.97,0,.02-2.677-1.322-3.245-2.407-1.021-4.471.777-4.482,3.245" transform="translate(-237.893 -100.857)" fill="#171817"/>
      <path id="Path_960" data-name="Path 960" d="M651.539,160.941h-7.386a3.374,3.374,0,0,0,4.84,3.606c.391-.184,2.612-3.859,2.179-1.339-.486,2.826-4.9,3.424-6.852,1.608-1.827-1.7-1.8-6.683.273-8.213,3.511-2.592,7.081.464,6.946,4.338m-1.407-.7c.391-4.892-6.028-4.534-5.979,0Z" transform="translate(-416.608 -100.843)" fill="#171817"/>
      <path id="Path_961" data-name="Path 961" d="M429.74,161.025h-7.386c-.1,2.836,2.024,4.81,4.834,3.6,1.449-.625.852-2.508,2.551-2.192a4.219,4.219,0,0,1-8.275.361c-2.125-7.891,8.28-10.014,8.277-1.769m-1.055-.7c-.282-4.756-5.989-4.69-6.331,0Z" transform="translate(-272.889 -100.927)" fill="#171817"/>
      <path id="Path_962" data-name="Path 962" d="M535.794,156.669v7.556c0,1.007,2.434,1.384,3.335,1.222a3.677,3.677,0,0,0,1.941-1.924v-6.854h1.407v9.489l-1.054,0,0-1.409c-1.68,2.159-6.083,2.687-6.658-.549-.191-1.075-.641-6.7-.188-7.186.419-.452.654-.384,1.221-.348" transform="translate(-346.234 -101.492)" fill="#171817"/>
      <path id="Path_963" data-name="Path 963" d="M146.814,0c-.008,2.513.66,5.168-2.63,5.309-1.563.067-3.425-.405-3.335-2.286C141-.151,144.5.314,146.814,0" transform="translate(-91.257)" fill="#171817"/>
      <path id="Path_964" data-name="Path 964" d="M762.913,165.708h-1.055v-7.2c0-1.766-3.489-2.248-4.742-.52a15.32,15.32,0,0,0-.886,1.926v5.8h-1.055v-9.489a3.775,3.775,0,0,1,1.054,0c.113.2-.288,1.432.525,1.053.439-.2.708-.872,1.644-1.168,1.4-.442,4.515.043,4.515,1.7Z" transform="translate(-489.293 -101.042)" fill="#171817"/>
      <path id="Path_965" data-name="Path 965" d="M590.4,156.718v7.2c0,1.691,3.668,2.5,4.878.3a18.047,18.047,0,0,0,.749-2.062v-5.447h1.055v9.489l-1.054,0-.176-1.407c-.947,2.519-6.508,2.048-6.508-.178v-7.907Z" transform="translate(-381.851 -101.541)" fill="#171817"/>
      <path id="Path_966" data-name="Path 966" d="M5.177,70.008c2.293-.25,1.452,3.222.448,4.349-1.96,2.2-6.918.276-5.309-2.143.372-.56,4.136-2.127,4.86-2.206" transform="translate(0 -45.352)" fill="#171817"/>
      <path id="Path_967" data-name="Path 967" d="M448.551,220.6v7.2c0,1.588,3.46,2.288,4.741.521a15.346,15.346,0,0,0,.886-1.927v-5.8h1.055v9.489l-1.054,0L454,228.686c-1.4,1.585-3.408,2.417-5.286,1.062a5.9,5.9,0,0,1-1.222-1.59V220.6Z" transform="translate(-289.942 -142.933)" fill="#171817"/>
      <path id="Path_968" data-name="Path 968" d="M250.757,220.6v7.2c0,1.291,2.487,1.849,3.623,1.511.731-.218,2-2.311,2-2.917v-5.8h1.055v9.489l-1.054,0-.176-1.407c-1.334,1.524-3.5,2.35-5.287,1.062a5.9,5.9,0,0,1-1.222-1.59V220.6Z" transform="translate(-161.787 -142.933)" fill="#171817"/>
      <path id="Path_969" data-name="Path 969" d="M370.311,220.6a1.9,1.9,0,0,1-.556,1.378c-1.653,2.385-4.16,4.564-5.775,7.056h6.155c.229,0,.675.754.527,1.054h-8.089c-.131-1.862,2.1-3.3,3.158-4.752l2.821-4.034h-5.627v-.7Z" transform="translate(-234.915 -142.933)" fill="#171817"/>
      <path id="Path_970" data-name="Path 970" d="M230.468,220.6l-.334,1.248-6,7.187h6.155c.229,0,.675.754.527,1.054H222.73c.511-2.55,3.139-4.6,4.714-6.711.459-.618,1.2-1.316,1.265-2.075h-5.627v-.7Z" transform="translate(-144.311 -142.933)" fill="#171817"/>
      <path id="Path_971" data-name="Path 971" d="M294.711,209.622V221.4a3.519,3.519,0,0,0,.527.527h6.683c.229,0,.675.754.527,1.054h-8.793V209.622Z" transform="translate(-190.266 -135.818)" fill="#171817"/>
      <path id="Path_972" data-name="Path 972" d="M352.416,148.728v2.815h2.114v1.052h-2.114c.163,1.441-.464,6.821.694,7.573.159.1,2.838.338.967.958-4.5,1.49-2.03-7.993-2.728-8.517-.2-.15-1.412.191-1.743-.544l1.757-.521v-2.815Z" transform="translate(-226.518 -96.364)" fill="#171817"/>
      <path id="Path_973" data-name="Path 973" d="M470.282,148.724v2.812h1.763v1.052h-1.763c.21,1.262-.418,7.109.337,7.579.779.486,1.76-.473,1.421,1.209l-2.653-.687-.156-8.1h-1.763v-1.052c3.154.512.046-3,2.815-2.811" transform="translate(-302.882 -96.357)" fill="#171817"/>
      <path id="Path_974" data-name="Path 974" d="M573.177,148.728v2.815h2.11c.233,1.5-1.9.877-2.11,1.052-.3.248.007,7.421.4,7.687.515.347,2.84-.512,1.151,1.051-4.42-.078-2.013-5.748-2.6-8.739h-1.763v-1.052h1.763v-2.815Z" transform="translate(-369.549 -96.364)" fill="#171817"/>
      <path id="Path_975" data-name="Path 975" d="M227.134,159.227h-1.407V146.4c0-.605,1.407-.606,1.407,0Z" transform="translate(-146.253 -94.561)" fill="#171817"/>
      <path id="Path_976" data-name="Path 976" d="M348.966,211.6l.155,2.832c.434.65,1.814.064,1.959.508.3.92-1.221.307-1.784.677-.533.35-.556,6.864.1,7.5.565.545,1.953-.015,1.678,1.133-2.85.222-3-.416-3.179-2.972-.134-1.88.126-3.916.018-5.814H346.5c-.336-1.25,1.119-.466,1.411-.7.244-.195-.678-3.411,1.051-3.163" transform="translate(-224.475 -137.09)" fill="#171817"/>
      <path id="Path_977" data-name="Path 977" d="M617.319,156.08h1.054l0,1.759a7.707,7.707,0,0,1,3.695-2.1c.728,1.87-.321,1.2-1.488,1.674-3.068,1.238-2,5.5-2.211,8.163l-1.054,0Z" transform="translate(-399.974 -100.903)" fill="#171817"/>
      <path id="Path_978" data-name="Path 978" d="M672.792,165.937l-1.054,0a45.731,45.731,0,0,1,.015-6.168c0-1.287-1.144-3.6,1.038-3.321l.178,1.754c.062-1.089,2.716-2.337,3.34-1.754a4.452,4.452,0,0,1,0,1.051,6.483,6.483,0,0,0-1.893.4,5.387,5.387,0,0,0-1.626,1.889Z" transform="translate(-435.047 -101.27)" fill="#171817"/>
      <path id="Path_979" data-name="Path 979" d="M503.438,220.073l1.053,0,0,1.759c.427-.728,3.191-3.02,3.863-1.577.333.716-2.366.9-2.644,1.568a11.543,11.543,0,0,0-1.222,1.942v5.8h-1.055Z" transform="translate(-326.188 -142.404)" fill="#171817"/>
      <path id="Path_980" data-name="Path 980" d="M396.549,156.072H397.6l.349,1.756c.227-1.659,1.952-1.6,3.166-2.106l-.012,1.388c-1.091-.407-3.5,1.421-3.5,2.3v6.15h-1.055Z" transform="translate(-256.932 -100.895)" fill="#171817"/>
      <path id="Path_981" data-name="Path 981" d="M564.43,145.684v13.355h-1.055V146.211c0-.229.754-.674,1.055-.527" transform="translate(-365.022 -94.373)" fill="#171817"/>
      <path id="Path_982" data-name="Path 982" d="M461.537,145.684v13.355h-1.055V146.211c0-.229.754-.674,1.055-.527" transform="translate(-298.356 -94.373)" fill="#171817"/>
      <path id="Path_983" data-name="Path 983" d="M451.547,159.093h-1.056v-13c0-.056.8-.077,1.056-.351Z" transform="translate(-291.883 -94.427)" fill="#171817"/>
      <rect id="Rectangle_258" data-name="Rectangle 258" width="1.407" height="9.489" transform="translate(145.244 55.177)" fill="#171817"/>
      <rect id="Rectangle_259" data-name="Rectangle 259" width="1.055" height="9.489" transform="translate(223.324 55.177)" fill="#171817"/>
      <path id="Path_984" data-name="Path 984" d="M413.017,145.712c.947-.212,1.281,1.648.343,2.105-.947.212-1.281-1.648-.343-2.105" transform="translate(-267.241 -94.399)" fill="#171817"/>
      <rect id="Rectangle_260" data-name="Rectangle 260" width="1.404" height="1.76" transform="translate(117.812 74.154)" fill="#171817"/>
      <rect id="Rectangle_261" data-name="Rectangle 261" width="1.052" height="2.112" transform="translate(223.326 51.31)" fill="#171817"/>
      <rect id="Rectangle_262" data-name="Rectangle 262" width="1.052" height="1.761" transform="translate(114.646 74.153)" fill="#171817"/>
    </g>
  </g>
</svg>
