<svg xmlns="http://www.w3.org/2000/svg" width="18.203" height="18.203" viewBox="0 0 18.203 18.203">
  <g id="Icon_feather-instagram" data-name="Icon feather-instagram" transform="translate(1 1)">
    <path id="Path_884" data-name="Path 884" d="M7.051,3h8.1A4.051,4.051,0,0,1,19.2,7.051v8.1A4.051,4.051,0,0,1,15.152,19.2h-8.1A4.051,4.051,0,0,1,3,15.152v-8.1A4.051,4.051,0,0,1,7.051,3Z" transform="translate(-3 -3)" fill="none" stroke="#fff" stroke-linecap="round" stroke-linejoin="round" stroke-width="2"/>
    <path id="Path_885" data-name="Path 885" d="M18.511,14.7a3.241,3.241,0,1,1-2.73-2.73,3.241,3.241,0,0,1,2.73,2.73Z" transform="translate(-7.169 -7.109)" fill="none" stroke="#fff" stroke-linecap="round" stroke-linejoin="round" stroke-width="2"/>
    <path id="Path_886" data-name="Path 886" d="M26.25,9.75h0" transform="translate(-13.693 -6.104)" fill="none" stroke="#fff" stroke-linecap="round" stroke-linejoin="round" stroke-width="2"/>
  </g>
</svg>
